<svg xmlns="http://www.w3.org/2000/svg" viewBox="0 0 1080 1080">
  <!-- anillo gris exterior -->
  <circle cx="540" cy="540" r="464" fill="none" stroke="#878787" stroke-width="13"/>
  <!-- disco negro -->
  <circle cx="540" cy="540" r="449" fill="#000000"/>
  <!-- anillo dorado -->
  <circle cx="540" cy="540" r="440" fill="none" stroke="#F9B233" stroke-width="7"/>
  <!-- MUEBLES -->
  <path d="M360.52799999999996 304.032V305.952Q357.26399999999995 306.048 355.58399999999995 306.672Q353.904 307.296 353.328 308.976Q352.75199999999995 310.656 352.75199999999995 314.20799999999997V361.824Q352.75199999999995 365.28 353.328 367.008Q353.904 368.736 355.58399999999995 369.312Q357.26399999999995 369.888 360.52799999999996 370.08V372.0Q358.31999999999994 371.808 355.0079999999999 371.76Q351.69599999999997 371.712 348.33599999999996 371.712Q344.592 371.712 341.328 371.76Q338.06399999999996 371.808 336.04799999999994 372.0V370.08Q339.31199999999995 369.888 340.99199999999996 369.312Q342.67199999999997 368.736 343.24799999999993 367.008Q343.82399999999996 365.28 343.82399999999996 361.824V309.024L344.20799999999997 309.312L320.688 372.48H319.15199999999993L294.96 310.176V360.864Q294.96 364.32 295.58399999999995 366.288Q296.20799999999997 368.256 298.0799999999999 369.072Q299.95199999999994 369.888 303.69599999999997 370.08V372.0Q301.96799999999996 371.808 299.18399999999997 371.76Q296.4 371.712 293.90399999999994 371.712Q291.50399999999996 371.712 289.0559999999999 371.76Q286.60799999999995 371.808 284.97599999999994 372.0V370.08Q288.23999999999995 369.888 289.91999999999996 369.072Q291.59999999999997 368.256 292.17599999999993 366.288Q292.75199999999995 364.32 292.75199999999995 360.864V314.20799999999997Q292.75199999999995 310.656 292.17599999999993 308.976Q291.59999999999997 307.296 289.91999999999996 306.672Q288.23999999999995 306.048 284.97599999999994 305.952V304.032Q286.60799999999995 304.128 289.0559999999999 304.224Q291.50399999999996 304.32 293.90399999999994 304.32Q296.01599999999996 304.32 298.27199999999993 304.224Q300.52799999999996 304.128 302.06399999999996 304.032L323.85599999999994 361.44L322.22399999999993 362.208L343.82399999999996 304.32Q344.97599999999994 304.32 346.0799999999999 304.32Q347.18399999999997 304.32 348.33599999999996 304.32Q351.69599999999997 304.32 355.0079999999999 304.224Q358.31999999999994 304.128 360.52799999999996 304.032Z M441.43999999999994 304.032V305.952Q438.17599999999993 306.048 436.4959999999999 306.91200000000003Q434.8159999999999 307.776 434.2399999999999 309.696Q433.66399999999993 311.616 433.66399999999993 315.168V344.064Q433.66399999999993 350.784 432.79999999999995 355.77599999999995Q431.9359999999999 360.768 429.72799999999995 364.416Q427.328 368.448 422.71999999999997 370.89599999999996Q418.11199999999997 373.344 412.15999999999997 373.344Q407.55199999999996 373.344 403.376 372.24Q399.19999999999993 371.136 396.0319999999999 368.16Q393.24799999999993 365.472 391.66399999999993 362.496Q390.0799999999999 359.52 389.5039999999999 355.2Q388.92799999999994 350.88 388.92799999999994 344.352V314.20799999999997Q388.92799999999994 310.656 388.352 308.976Q387.77599999999995 307.296 386.09599999999995 306.672Q384.41599999999994 306.048 381.15199999999993 305.952V304.032Q383.16799999999995 304.128 386.43199999999996 304.224Q389.69599999999997 304.32 393.43999999999994 304.32Q396.79999999999995 304.32 400.11199999999997 304.224Q403.4239999999999 304.128 405.63199999999995 304.032V305.952Q402.36799999999994 306.048 400.68799999999993 306.672Q399.0079999999999 307.296 398.4319999999999 308.976Q397.85599999999994 310.656 397.85599999999994 314.20799999999997V345.984Q397.85599999999994 350.88 398.3359999999999 355.248Q398.8159999999999 359.616 400.3039999999999 362.928Q401.7919999999999 366.24 404.8639999999999 368.11199999999997Q407.9359999999999 369.984 413.02399999999994 369.984Q420.31999999999994 369.984 424.304 366.76800000000003Q428.28799999999995 363.552 429.87199999999996 357.88800000000003Q431.45599999999996 352.224 431.45599999999996 345.12V315.168Q431.45599999999996 311.616 430.64 309.696Q429.82399999999996 307.776 427.90399999999994 306.91200000000003Q425.9839999999999 306.048 422.71999999999997 305.952V304.032Q424.4479999999999 304.128 427.28 304.224Q430.11199999999997 304.32 432.51199999999994 304.32Q435.0079999999999 304.32 437.4559999999999 304.224Q439.90399999999994 304.128 441.43999999999994 304.032Z M509.9679999999999 304.032Q509.58399999999995 307.392 509.43999999999994 310.56Q509.29599999999994 313.728 509.29599999999994 315.36Q509.29599999999994 317.088 509.39199999999994 318.672Q509.48799999999994 320.256 509.58399999999995 321.312H507.3759999999999Q506.79999999999995 315.648 505.7439999999999 312.336Q504.68799999999993 309.024 502.1439999999999 307.632Q499.5999999999999 306.24 494.51199999999994 306.24H486.5439999999999Q483.2799999999999 306.24 481.5999999999999 306.76800000000003Q479.9199999999999 307.296 479.34399999999994 308.976Q478.7679999999999 310.656 478.7679999999999 314.20799999999997V361.824Q478.7679999999999 365.28 479.34399999999994 367.008Q479.9199999999999 368.736 481.5999999999999 369.264Q483.2799999999999 369.792 486.5439999999999 369.792H493.5519999999999Q499.5999999999999 369.792 502.7199999999999 368.15999999999997Q505.8399999999999 366.528 507.2319999999999 362.832Q508.6239999999999 359.136 509.29599999999994 352.8H511.5039999999999Q511.21599999999995 355.392 511.21599999999995 359.712Q511.21599999999995 361.536 511.3599999999999 364.94399999999996Q511.5039999999999 368.352 511.8879999999999 372.0Q506.9919999999999 371.808 500.84799999999996 371.76Q494.70399999999995 371.712 489.90399999999994 371.712Q487.7919999999999 371.712 484.4799999999999 371.712Q481.16799999999995 371.712 477.328 371.76Q473.48799999999994 371.808 469.5519999999999 371.856Q465.61599999999993 371.904 462.0639999999999 372.0V370.08Q465.3279999999999 369.888 467.0079999999999 369.312Q468.68799999999993 368.736 469.2639999999999 367.008Q469.8399999999999 365.28 469.8399999999999 361.824V314.20799999999997Q469.8399999999999 310.656 469.2639999999999 308.976Q468.68799999999993 307.296 467.0079999999999 306.672Q465.3279999999999 306.048 462.0639999999999 305.952V304.032Q465.61599999999993 304.128 469.5519999999999 304.176Q473.48799999999994 304.224 477.328 304.272Q481.16799999999995 304.32 484.4799999999999 304.32Q487.7919999999999 304.32 489.90399999999994 304.32Q494.31999999999994 304.32 499.9359999999999 304.272Q505.5519999999999 304.224 509.9679999999999 304.032ZM493.4559999999999 336.864Q493.4559999999999 336.864 493.4559999999999 337.82399999999996Q493.4559999999999 338.784 493.4559999999999 338.784H475.8879999999999Q475.8879999999999 338.784 475.8879999999999 337.82399999999996Q475.8879999999999 336.864 475.8879999999999 336.864ZM496.2399999999999 324.192Q495.85599999999994 329.664 495.90399999999994 332.544Q495.95199999999994 335.424 495.95199999999994 337.824Q495.95199999999994 340.224 496.04799999999994 343.104Q496.14399999999995 345.984 496.5279999999999 351.456H494.31999999999994Q493.9359999999999 348.384 493.4079999999999 345.456Q492.87999999999994 342.528 491.1039999999999 340.656Q489.3279999999999 338.784 485.1039999999999 338.784V336.864Q488.27199999999993 336.864 489.95199999999994 335.568Q491.63199999999995 334.272 492.4 332.256Q493.16799999999995 330.24 493.4559999999999 328.08000000000004Q493.7439999999999 325.92 494.0319999999999 324.192Z M534.5279999999999 304.032Q536.5439999999999 304.128 539.8079999999999 304.224Q543.0719999999999 304.32 546.2399999999999 304.32Q550.7519999999998 304.32 554.8799999999999 304.224Q559.0079999999998 304.128 560.7359999999999 304.128Q570.8159999999999 304.128 575.9039999999999 308.352Q580.9919999999998 312.576 580.9919999999998 319.2Q580.9919999999998 322.56 579.5999999999999 325.776Q578.2079999999999 328.992 574.9919999999998 331.632Q571.7759999999998 334.272 566.3999999999999 335.904V336.096Q573.9839999999999 337.056 578.2559999999999 339.696Q582.5279999999999 342.336 584.2559999999999 345.88800000000003Q585.9839999999999 349.44 585.9839999999999 353.376Q585.9839999999999 358.848 583.2479999999998 363.024Q580.5119999999998 367.2 575.3279999999999 369.6Q570.1439999999999 372.0 562.9439999999998 372.0Q560.8319999999999 372.0 556.608 371.856Q552.3839999999999 371.712 546.4319999999999 371.712Q543.0719999999999 371.712 539.8079999999999 371.76Q536.5439999999999 371.808 534.5279999999999 372.0V370.08Q537.7919999999999 369.888 539.4719999999999 369.312Q541.1519999999998 368.736 541.7279999999998 367.008Q542.3039999999999 365.28 542.3039999999999 361.824V314.20799999999997Q542.3039999999999 310.656 541.7279999999998 308.976Q541.1519999999998 307.296 539.4719999999999 306.672Q537.7919999999999 306.048 534.5279999999999 305.952ZM558.3359999999999 305.952Q553.9199999999998 305.952 552.5759999999998 307.584Q551.2319999999999 309.216 551.2319999999999 314.20799999999997V361.824Q551.2319999999999 365.184 551.8079999999999 366.91200000000003Q552.3839999999999 368.64 553.9199999999998 369.216Q555.4559999999999 369.792 558.4319999999999 369.792Q567.8399999999999 369.792 572.1119999999999 365.424Q576.3839999999999 361.056 576.3839999999999 352.992Q576.3839999999999 345.6 572.3999999999999 341.568Q568.4159999999998 337.536 559.2959999999998 337.536H549.4079999999999Q549.4079999999999 337.536 549.4079999999999 336.72Q549.4079999999999 335.904 549.4079999999999 335.904H557.6639999999999Q563.3279999999999 335.904 566.3999999999999 333.744Q569.4719999999999 331.584 570.6239999999998 327.98400000000004Q571.7759999999998 324.384 571.7759999999998 320.256Q571.7759999999998 313.152 568.6559999999998 309.552Q565.5359999999998 305.952 558.3359999999999 305.952Z M632.8159999999998 304.032V305.952Q629.5519999999999 306.048 627.8719999999998 306.672Q626.1919999999999 307.296 625.6159999999999 308.976Q625.0399999999998 310.656 625.0399999999998 314.20799999999997V361.824Q625.0399999999998 365.28 625.6159999999999 367.008Q626.1919999999999 368.736 627.8719999999998 369.264Q629.5519999999999 369.792 632.8159999999998 369.792H639.8239999999998Q644.3359999999999 369.792 647.1679999999999 368.832Q649.9999999999999 367.872 651.6799999999998 365.808Q653.3599999999999 363.744 654.2239999999999 360.288Q655.0879999999999 356.832 655.5679999999999 351.84H657.7759999999998Q657.4879999999998 354.816 657.4879999999998 359.712Q657.4879999999998 361.536 657.6319999999998 364.94399999999996Q657.7759999999998 368.352 658.1599999999999 372.0Q653.2639999999999 371.808 647.1199999999999 371.76Q640.9759999999999 371.712 636.1759999999998 371.712Q634.0639999999999 371.712 630.7519999999998 371.712Q627.4399999999998 371.712 623.5999999999999 371.76Q619.7599999999999 371.808 615.8239999999998 371.856Q611.8879999999998 371.904 608.3359999999999 372.0V370.08Q611.5999999999999 369.888 613.2799999999999 369.312Q614.9599999999998 368.736 615.5359999999998 367.008Q616.1119999999999 365.28 616.1119999999999 361.824V314.20799999999997Q616.1119999999999 310.656 615.5359999999998 308.976Q614.9599999999998 307.296 613.2799999999999 306.672Q611.5999999999999 306.048 608.3359999999999 305.952V304.032Q610.3519999999999 304.128 613.6159999999999 304.224Q616.8799999999999 304.32 620.6239999999999 304.32Q623.9839999999998 304.32 627.2959999999998 304.224Q630.6079999999998 304.128 632.8159999999998 304.032Z M726.6879999999999 304.032Q726.3039999999999 307.392 726.1599999999999 310.56Q726.0159999999998 313.728 726.0159999999998 315.36Q726.0159999999998 317.088 726.1119999999999 318.672Q726.2079999999999 320.256 726.3039999999999 321.312H724.0959999999999Q723.5199999999999 315.648 722.4639999999998 312.336Q721.4079999999998 309.024 718.8639999999998 307.632Q716.3199999999998 306.24 711.2319999999999 306.24H703.2639999999999Q699.9999999999999 306.24 698.3199999999999 306.76800000000003Q696.6399999999999 307.296 696.0639999999999 308.976Q695.4879999999998 310.656 695.4879999999998 314.20799999999997V361.824Q695.4879999999998 365.28 696.0639999999999 367.008Q696.6399999999999 368.736 698.3199999999999 369.264Q699.9999999999999 369.792 703.2639999999999 369.792H710.2719999999998Q716.3199999999998 369.792 719.4399999999998 368.15999999999997Q722.5599999999998 366.528 723.9519999999998 362.832Q725.3439999999998 359.136 726.0159999999998 352.8H728.2239999999998Q727.9359999999998 355.392 727.9359999999998 359.712Q727.9359999999998 361.536 728.0799999999998 364.94399999999996Q728.2239999999998 368.352 728.6079999999998 372.0Q723.7119999999999 371.808 717.5679999999999 371.76Q711.4239999999999 371.712 706.6239999999998 371.712Q704.5119999999998 371.712 701.1999999999998 371.712Q697.8879999999998 371.712 694.0479999999998 371.76Q690.2079999999999 371.808 686.2719999999998 371.856Q682.3359999999998 371.904 678.7839999999999 372.0V370.08Q682.0479999999999 369.888 683.7279999999998 369.312Q685.4079999999998 368.736 685.9839999999998 367.008Q686.5599999999998 365.28 686.5599999999998 361.824V314.20799999999997Q686.5599999999998 310.656 685.9839999999998 308.976Q685.4079999999998 307.296 683.7279999999998 306.672Q682.0479999999999 306.048 678.7839999999999 305.952V304.032Q682.3359999999998 304.128 686.2719999999998 304.176Q690.2079999999999 304.224 694.0479999999998 304.272Q697.8879999999998 304.32 701.1999999999998 304.32Q704.5119999999998 304.32 706.6239999999998 304.32Q711.0399999999998 304.32 716.6559999999998 304.272Q722.2719999999998 304.224 726.6879999999999 304.032ZM710.1759999999998 336.864Q710.1759999999998 336.864 710.1759999999998 337.82399999999996Q710.1759999999998 338.784 710.1759999999998 338.784H692.6079999999998Q692.6079999999998 338.784 692.6079999999998 337.82399999999996Q692.6079999999998 336.864 692.6079999999998 336.864ZM712.9599999999998 324.192Q712.5759999999998 329.664 712.6239999999998 332.544Q712.6719999999998 335.424 712.6719999999998 337.824Q712.6719999999998 340.224 712.7679999999998 343.104Q712.8639999999998 345.984 713.2479999999998 351.456H711.0399999999998Q710.6559999999998 348.384 710.1279999999998 345.456Q709.5999999999998 342.528 707.8239999999998 340.656Q706.0479999999999 338.784 701.8239999999998 338.784V336.864Q704.9919999999998 336.864 706.6719999999998 335.568Q708.3519999999999 334.272 709.1199999999999 332.256Q709.8879999999998 330.24 710.1759999999998 328.08000000000004Q710.4639999999998 325.92 710.7519999999998 324.192Z M771.7919999999999 302.976Q776.5919999999999 302.976 779.088 304.08Q781.584 305.18399999999997 783.5039999999999 306.528Q784.656 307.2 785.376 307.536Q786.0959999999999 307.872 786.7679999999999 307.872Q787.7279999999998 307.872 788.1599999999999 306.81600000000003Q788.5919999999999 305.76 788.8799999999999 303.648H791.0879999999999Q790.9919999999998 305.28 790.848 307.536Q790.704 309.79200000000003 790.656 313.488Q790.608 317.18399999999997 790.608 323.23199999999997H788.3999999999999Q788.1119999999999 318.624 786.3839999999999 314.4Q784.656 310.176 781.3439999999999 307.488Q778.0319999999999 304.8 772.656 304.8Q767.5679999999999 304.8 764.2559999999999 307.872Q760.9439999999998 310.944 760.9439999999998 315.936Q760.9439999999998 320.256 763.1519999999998 323.18399999999997Q765.3599999999999 326.112 769.0559999999999 328.46400000000006Q772.752 330.81600000000003 777.0719999999999 333.504Q782.0639999999999 336.576 785.9519999999999 339.6Q789.8399999999999 342.624 792.0959999999999 346.27200000000005Q794.3519999999999 349.92 794.3519999999999 355.104Q794.3519999999999 361.248 791.5679999999999 365.28Q788.7839999999999 369.312 784.1759999999999 371.328Q779.5679999999999 373.344 773.9999999999999 373.344Q768.9119999999999 373.344 765.9359999999999 372.192Q762.9599999999999 371.04 760.8479999999998 369.792Q758.7359999999999 368.448 757.584 368.448Q756.6239999999999 368.448 756.1919999999999 369.504Q755.7599999999999 370.56 755.4719999999999 372.672H753.2639999999999Q753.4559999999999 370.656 753.5039999999999 367.92Q753.5519999999999 365.184 753.5999999999999 360.76800000000003Q753.6479999999999 356.352 753.6479999999999 349.632H755.8559999999999Q756.2399999999999 355.392 758.0159999999998 360.384Q759.7919999999999 365.376 763.4879999999998 368.4Q767.1839999999999 371.424 773.3279999999999 371.424Q776.4959999999999 371.424 779.3279999999999 370.128Q782.1599999999999 368.832 783.9839999999999 366.0Q785.8079999999999 363.168 785.8079999999999 358.656Q785.8079999999999 354.72 783.9359999999999 351.79200000000003Q782.0639999999999 348.864 778.704 346.32Q775.3439999999999 343.776 770.8319999999999 341.088Q766.3199999999999 338.304 762.3839999999999 335.424Q758.4479999999999 332.544 756.0959999999999 328.75199999999995Q753.7439999999999 324.96 753.7439999999999 319.584Q753.7439999999999 313.92 756.2879999999999 310.22400000000005Q758.8319999999999 306.528 762.9599999999998 304.752Q767.0879999999999 302.976 771.7919999999999 302.976Z" fill="#ffffff"/>
  <!-- VCH -->
  <path d="M353.77750000000003 540.94V549.8399999999999Q345.3225 551.62 335.755 560.075Q326.1875 568.53 318.6225 588.5550000000001L214.0475 858.225Q213.1575 858.225 212.26749999999998 858.225Q211.3775 858.225 210.4875 858.225Q209.5975 858.225 208.70749999999998 858.225Q207.8175 858.225 206.9275 858.225L98.3475 578.3199999999999Q91.6725 561.41 83.2175 555.8475Q74.7625 550.285 67.6425 549.8399999999999V540.94Q76.5425 541.385 89.67 541.8299999999999Q102.7975 542.275 115.2575 542.275Q132.6125 542.275 147.7425 541.8299999999999Q162.8725 541.385 172.2175 540.94V549.8399999999999Q157.0875 550.285 149.3 553.4Q141.5125 556.515 140.845 564.3025Q140.1775 572.0899999999999 145.9625 587.22L228.73250000000002 806.605L221.6125 814.17L299.0425 613.03Q308.38750000000005 589.0 307.9425 575.4275Q307.4975 561.855 297.7075 556.0699999999999Q287.9175 550.285 269.22749999999996 549.8399999999999V540.94Q282.1325 541.385 295.48249999999996 541.8299999999999Q308.8325 542.275 320.40250000000003 542.275Q331.9725 542.275 339.5375 541.8299999999999Q347.1025 541.385 353.77750000000003 540.94Z M523.7575 534.71Q553.1275 534.71 572.04 543.3875Q590.9525 552.065 605.6375 563.635Q614.5375 570.31 619.21 565.1925Q623.8825 560.075 625.6625 540.94H635.8975Q635.0075 557.405 634.5625 580.99Q634.1175000000001 604.575 634.1175000000001 643.29H623.8825Q620.7675 624.155 618.0975000000001 612.8075Q615.4275 601.46 611.645 593.45Q607.8625000000001 585.44 601.6325 577.4300000000001Q587.8375000000001 559.185 566.9225000000001 550.9525Q546.0075 542.72 522.8675000000001 542.72Q501.0625 542.72 483.485 553.6225Q465.9075 564.525 453.225 584.995Q440.5425 605.465 433.64500000000004 634.3900000000001Q426.74750000000006 663.315 426.74750000000006 699.36Q426.74750000000006 736.74 434.31250000000006 765.4425Q441.87750000000005 794.145 455.45000000000005 813.7249999999999Q469.02250000000004 833.305 487.49 843.3175Q505.95750000000004 853.33 527.3175 853.33Q547.3425 853.33 569.1475 845.3199999999999Q590.9525 837.31 603.4125 819.51Q613.2025 806.605 616.985 791.475Q620.7675 776.345 623.8825 749.2H634.1175000000001Q634.1175000000001 789.6949999999999 634.5625 814.3924999999999Q635.0075 839.09 635.8975 856.0H625.6625Q623.8825 836.865 619.655 831.97Q615.4275 827.075 605.6375 833.305Q589.1725 844.875 570.705 853.5525Q552.2375000000001 862.23 523.3125 862.23Q481.0375 862.23 449.22 843.095Q417.40250000000003 823.96 399.82500000000005 787.915Q382.2475 751.87 382.2475 701.14Q382.2475 651.3 400.4925 613.92Q418.7375 576.54 450.55500000000006 555.625Q482.37250000000006 534.71 523.7575 534.71Z M877.5225 856.0V847.1Q892.6525 846.21 900.44 843.54Q908.2275 840.87 910.8975 832.86Q913.5675 824.85 913.5675 808.83V588.11Q913.5675 571.645 910.8975 563.8575Q908.2275 556.0699999999999 900.44 553.1775Q892.6525 550.285 877.5225 549.8399999999999V540.94Q887.7574999999999 541.385 903.3325 541.8299999999999Q918.9075 542.275 934.0375 542.275Q951.3924999999999 542.275 966.5224999999999 541.8299999999999Q981.6524999999999 541.385 990.9975 540.94V549.8399999999999Q975.8675000000001 550.285 968.08 553.1775Q960.2925 556.0699999999999 957.6225 563.8575Q954.9525 571.645 954.9525 588.11V808.83Q954.9525 824.85 957.6225 832.86Q960.2925 840.87 968.08 843.54Q975.8675000000001 846.21 990.9975 847.1V856.0Q981.6524999999999 855.11 966.5224999999999 854.8875Q951.3924999999999 854.665 934.0375 854.665Q918.9075 854.665 903.3325 854.8875Q887.7574999999999 855.11 877.5225 856.0ZM691.5125 856.0V847.1Q706.6425 846.21 714.4300000000001 843.54Q722.2175 840.87 724.8875 832.86Q727.5575 824.85 727.5575 808.83V588.11Q727.5575 571.645 724.8875 563.8575Q722.2175 556.0699999999999 714.4300000000001 553.1775Q706.6425 550.285 691.5125 549.8399999999999V540.94Q700.8575 541.385 715.9875 541.8299999999999Q731.1175 542.275 748.4725 542.275Q764.0475 542.275 779.4000000000001 541.8299999999999Q794.7525 541.385 804.9875 540.94V549.8399999999999Q789.8575 550.285 782.0699999999999 553.1775Q774.2825 556.0699999999999 771.6125 563.8575Q768.9425 571.645 768.9425 588.11V808.83Q768.9425 824.85 771.6125 832.86Q774.2825 840.87 782.0699999999999 843.54Q789.8575 846.21 804.9875 847.1V856.0Q794.7525 855.11 779.4000000000001 854.8875Q764.0475 854.665 748.4725 854.665Q731.1175 854.665 715.9875 854.8875Q700.8575 855.11 691.5125 856.0ZM753.3675 702.03V693.13H929.1424999999999V702.03Z" fill="#ffffff"/>
</svg>